<svg xmlns="http://www.w3.org/2000/svg" viewBox="0 0 100 100">
  <!-- Mitad superior: roja (pokeball) -->
  <path d="M50 2 A48 48 0 0 1 98 50 H2 A48 48 0 0 1 50 2Z" fill="#EE1515" stroke="#222224" stroke-width="3"/>
  <!-- Mitad inferior: blanca (pokeball) -->
  <path d="M50 98 A48 48 0 0 1 2 50 H98 A48 48 0 0 1 50 98Z" fill="white" stroke="#222224" stroke-width="3"/>
  <!-- Línea central -->
  <rect x="2" y="47" width="96" height="6" fill="#222224"/>
  <!-- Círculo central blanco -->
  <circle cx="50" cy="50" r="18" fill="white" stroke="#222224" stroke-width="3"/>
  <!-- Huella animal: almohadilla principal -->
  <ellipse cx="50" cy="55" rx="8" ry="7" fill="#222224"/>
  <!-- Huella animal: dedos -->
  <ellipse cx="40" cy="44" rx="4" ry="5" fill="#222224" transform="rotate(-10 40 44)"/>
  <ellipse cx="50" cy="41" rx="4" ry="5" fill="#222224"/>
  <ellipse cx="60" cy="44" rx="4" ry="5" fill="#222224" transform="rotate(10 60 44)"/>
</svg>